<?xml version="1.0" encoding="UTF-8"?>
<svg id="Capa_1" xmlns="http://www.w3.org/2000/svg" version="1.1" viewBox="0 0 71 80">
  <!-- Generator: Adobe Illustrator 29.1.0, SVG Export Plug-In . SVG Version: 2.1.0 Build 142)  -->
  <defs>
    <style>
      .st0 {
        fill: #fff;
      }

      .st0, .st1 {
        fill-rule: evenodd;
      }

      .st2 {
        fill: #fce5c8;
      }

      .st1 {
        fill: #27213c;
      }
    </style>
  </defs>
  <g id="Page-1">
    <g id="Pla-de-treball-nou-amb-text">
      <g id="paf2_icona">
        <circle id="Oval-Copy-4" class="st2" cx="35.5" cy="44.5" r="35.5"/>
        <g id="requisits_icon-copy">
          <path id="Fill-12-Copy" class="st0" d="M16.7,49.5c-.3,0-.6-.3-.6-.6V.6c0-.3.3-.6.6-.6h36.7c.3,0,.6.3.6.6v48.4c0,.3-.3.6-.6.6H16.7Z"/>
          <path id="Fill-12" class="st1" d="M16.7,49.5c-.3,0-.6-.3-.6-.6V.6c0-.3.3-.6.6-.6h36.7c.3,0,.6.3.6.6v48.4c0,.3-.3.6-.6.6H16.7ZM17.5,48h35V1.5H17.5v46.5Z"/>
        </g>
        <g id="Group-6-Copy">
          <path id="Fill-4" class="st1" d="M30,38.5c.3.2.3.7,0,.9-.2.3-.7.3-.9,0l-.8-.8-.8.8c-.2.3-.7.3-.9,0-.3-.2-.3-.7,0-.9l.8-.8-.8-.8c-.3-.2-.3-.7,0-.9.2-.3.7-.3.9,0l.8.8.8-.8c.2-.3.7-.3.9,0,.3.2.3.7,0,.9l-.8.8.8.8Z"/>
          <path id="Fill-8" class="st1" d="M30.2,25.8c-.1-.1-.3-.2-.4-.2s-.3,0-.4.2l-1.2,1.2-.5.5-.6-.6c-.1-.1-.3-.2-.4-.2s-.3,0-.4.2c-.1.1-.2.3-.2.4s0,.3.2.4l1,1c.1.1.3.2.4.2s.3,0,.4-.2l2.1-2.1c.1-.1.2-.3.2-.4,0-.2,0-.3-.2-.4h0Z"/>
          <path id="Fill-9" class="st1" d="M44.5,26.8h-9c-.3,0-.6-.3-.6-.6s.3-.6.6-.6h9c.3,0,.6.3.6.6,0,.3-.3.6-.6.6Z"/>
          <path id="Fill-10" class="st1" d="M43.3,29h-7.9c-.3,0-.6-.3-.6-.6s.3-.6.6-.6h7.9c.3,0,.6.3.6.6s-.3.6-.6.6Z"/>
          <path id="Fill-10-Copy" class="st1" d="M48.4,14h-7.9c-.3,0-.6-.3-.6-.6s.3-.6.6-.6h7.9c.3,0,.6.3.6.6s-.3.6-.6.6Z"/>
          <path id="Fill-10-Copy-2" class="st1" d="M29.9,14h-8.2c-.3,0-.6-.3-.6-.6s.3-.6.6-.6h8.2c.3,0,.6.3.6.6s-.3.6-.6.6Z"/>
          <path id="Fill-11" class="st1" d="M44.5,37.2h-9c-.3,0-.6-.3-.6-.6s.3-.6.6-.6h9c.3,0,.6.3.6.6,0,.3-.3.6-.6.6Z"/>
          <path id="Fill-121" data-name="Fill-12" class="st1" d="M43.3,39.4h-7.9c-.3,0-.6-.3-.6-.6s.3-.6.6-.6h7.9c.3,0,.6.3.6.6s-.3.6-.6.6Z"/>
          <path id="_x32_" class="st1" d="M35,8.6c.4,0,.7,0,1,.2.3.1.5.3.7.4.2.2.4.4.5.7s.2.5.2.9,0,.5-.1.7c0,.2-.2.4-.3.6-.1.2-.3.4-.5.6s-.4.4-.5.6l-1.4,1.5c.2,0,.4,0,.5-.1s.3,0,.5,0h1.4c.2,0,.3,0,.4.1,0,0,.1.2.1.4v.9h-5.1v-.5c0,0,0-.2,0-.3,0-.1.1-.2.2-.3l2.1-2.1c.2-.2.3-.4.5-.5.1-.2.2-.3.3-.5,0-.2.2-.3.2-.5,0-.2,0-.3,0-.5,0-.3,0-.5-.2-.7-.1-.2-.3-.2-.6-.2s-.2,0-.3,0c0,0-.2,0-.3.1,0,0-.1.1-.2.2s0,.2-.1.2c0,.2-.1.3-.2.3,0,0-.2.1-.3.1s0,0-.1,0c0,0,0,0-.1,0h-.8c0-.5.2-.8.3-1.1s.3-.5.6-.7c.2-.2.5-.3.8-.4.3,0,.6-.1.9-.1Z"/>
        </g>
      </g>
    </g>
  </g>
</svg>