<?xml version="1.0" encoding="UTF-8"?>
<svg id="Capa_1" xmlns="http://www.w3.org/2000/svg" version="1.1" viewBox="0 0 123 69">
  <!-- Generator: Adobe Illustrator 29.1.0, SVG Export Plug-In . SVG Version: 2.1.0 Build 142)  -->
  <defs>
    <style>
      .st0 {
        fill: #fce5c8;
      }

      .st0, .st1, .st2 {
        fill-rule: evenodd;
      }

      .st1 {
        stroke: #131515;
        stroke-linecap: round;
        stroke-linejoin: round;
        stroke-width: 1.7px;
      }

      .st1, .st2 {
        fill: #fff;
      }
    </style>
  </defs>
  <g id="Page-1">
    <g id="Pla-de-treball-nou-amb-text">
      <g id="professor_icona">
        <path id="Rectangle-2-Copy-2" class="st0" d="M28,0h67c15.5,0,28,12.5,28,28v25c0,1.7-1.3,3-3,3H3c-1.7,0-3-1.3-3-3v-25C0,12.5,12.5,0,28,0Z"/>
        <g id="professor">
          <path id="Stroke-6" class="st1" d="M50.1,63.1v4.8h-18v-17.7s0-.9.5-1.4,1.3-.5,1.3-.5h8.2"/>
          <path id="Rectangle-4" class="st2" d="M55,34.5l12-2.5v27c-13,1.4-20.7,1.4-23,0s-2.3-5.9,0-13.5l11-11Z"/>
          <path id="Stroke-7" class="st1" d="M44.6,21c-2,0-3.6,1.6-3.6,3.7v7.3c3,0,5.4,2.5,5.4,5.5s-2.4,5.5-5.4,5.5v5.5h3.6c2,0,4.9-1.1,6.4-2.4l9.9-8.6c.9-.6,1.7-.6,2.3,0,.3.3.4,1.3,0,2.3-.3.6-1,1.7-2.3,3.2l-9.1,11.9c-1.2,1.6-1.8,4.4-1.8,6.4v1.8h36.3c2,0,3.6-1.6,3.6-3.7V24.7c0-2-1.6-3.7-3.6-3.7h-41.7Z"/>
          <path id="Stroke-1" class="st1" d="M41.5,43c-3,0-5.5-2.5-5.5-5.5s2.5-5.5,5.5-5.5,5.5,2.5,5.5,5.5-2.5,5.5-5.5,5.5Z"/>
          <path id="Path-2" class="st1" d="M0,12"/>
        </g>
      </g>
    </g>
  </g>
</svg>