<?xml version="1.0" encoding="UTF-8"?>
<svg id="Capa_1" xmlns="http://www.w3.org/2000/svg" version="1.1" viewBox="0 0 71 80">
  <!-- Generator: Adobe Illustrator 29.1.0, SVG Export Plug-In . SVG Version: 2.1.0 Build 142)  -->
  <defs>
    <style>
      .st0 {
        fill: #131515;
      }

      .st0, .st1 {
        fill-rule: evenodd;
      }

      .st1 {
        fill: #fff;
      }

      .st2 {
        fill: #fce5c8;
      }
    </style>
  </defs>
  <g id="Page-1">
    <g id="Pla-de-treball-nou-amb-text">
      <g id="paf1_icona">
        <circle id="Oval-Copy" class="st2" cx="35.5" cy="44.5" r="35.5"/>
        <path id="Fill-12-Copy" class="st1" d="M16.7,49.5c-.3,0-.6-.3-.6-.6V.6c0-.3.3-.6.6-.6h36.7c.3,0,.6.3.6.6v48.4c0,.3-.3.6-.6.6H16.7Z"/>
        <path id="Fill-12" class="st0" d="M16.7,49.5c-.3,0-.6-.3-.6-.6V.6c0-.3.3-.6.6-.6h36.7c.3,0,.6.3.6.6v48.4c0,.3-.3.6-.6.6H16.7ZM17.5,48h35V1.5H17.5v46.5Z"/>
        <g id="Group-6">
          <path id="Fill-4" class="st0" d="M30,38.5c.3.2.3.7,0,.9-.2.3-.7.3-.9,0l-.8-.8-.8.8c-.2.3-.7.3-.9,0-.3-.2-.3-.7,0-.9l.8-.8-.8-.8c-.3-.2-.3-.7,0-.9.2-.3.7-.3.9,0l.8.8.8-.8c.2-.3.7-.3.9,0,.3.2.3.7,0,.9l-.8.8.8.8Z"/>
          <path id="Fill-8" class="st0" d="M30.2,25.8c-.1-.1-.3-.2-.4-.2s-.3,0-.4.2l-1.2,1.2-.5.5-.6-.6c-.1-.1-.3-.2-.4-.2s-.3,0-.4.2c-.1.1-.2.3-.2.4s0,.3.2.4l1,1c.1.1.3.2.4.2s.3,0,.4-.2l2.1-2.1c.1-.1.2-.3.2-.4,0-.2,0-.3-.2-.4h0Z"/>
          <path id="Fill-9" class="st0" d="M44.5,26.8h-9c-.3,0-.6-.3-.6-.6s.3-.6.6-.6h9c.3,0,.6.3.6.6,0,.3-.3.6-.6.6Z"/>
          <path id="Fill-10" class="st0" d="M43.3,29h-7.9c-.3,0-.6-.3-.6-.6s.3-.6.6-.6h7.9c.3,0,.6.3.6.6s-.3.6-.6.6Z"/>
          <path id="Fill-10-Copy" class="st0" d="M48.4,14h-7.9c-.3,0-.6-.3-.6-.6s.3-.6.6-.6h7.9c.3,0,.6.3.6.6s-.3.6-.6.6Z"/>
          <path id="Fill-10-Copy-2" class="st0" d="M29.9,14h-8.2c-.3,0-.6-.3-.6-.6s.3-.6.6-.6h8.2c.3,0,.6.3.6.6s-.3.6-.6.6Z"/>
          <path id="Fill-11" class="st0" d="M44.5,37.2h-9c-.3,0-.6-.3-.6-.6s.3-.6.6-.6h9c.3,0,.6.3.6.6,0,.3-.3.6-.6.6Z"/>
          <path id="Fill-121" data-name="Fill-12" class="st0" d="M43.3,39.4h-7.9c-.3,0-.6-.3-.6-.6s.3-.6.6-.6h7.9c.3,0,.6.3.6.6s-.3.6-.6.6Z"/>
          <path id="_x31_" class="st0" d="M33.3,14.9h1.4v-3.7c0-.2,0-.4,0-.6l-.8.7c0,0-.1,0-.2,0,0,0-.1,0-.2,0,0,0-.2,0-.2,0,0,0-.1,0-.2-.1l-.5-.7,2.3-1.9h1.3v6.2h1.2v1.1h-4.1v-1.1Z"/>
        </g>
      </g>
    </g>
  </g>
</svg>