<?xml version="1.0" encoding="utf-8"?>
<!-- Generator: Adobe Illustrator 28.2.0, SVG Export Plug-In . SVG Version: 6.00 Build 0)  -->
<svg version="1.1" id="Capa_1" xmlns="http://www.w3.org/2000/svg" xmlns:xlink="http://www.w3.org/1999/xlink" x="0px" y="0px"
	 viewBox="0 0 71 80" style="enable-background:new 0 0 71 80;" xml:space="preserve">
<style type="text/css">
	.st0{fill-rule:evenodd;clip-rule:evenodd;fill:#FDF0F6;}
	.st1{fill-rule:evenodd;clip-rule:evenodd;fill:#FFFFFF;}
	.st2{fill-rule:evenodd;clip-rule:evenodd;fill:#131515;}
</style>
<g id="Page-1">
	<g id="Pla-de-treball-nou-amb-text" transform="translate(-344.000000, -4122.000000)">
		<g id="paf1_icona" transform="translate(344.000000, 4122.000000)">
			<circle id="Oval-Copy" class="st0" cx="35.5" cy="44.5" r="35.5"/>
			<path id="Fill-12-Copy" class="st1" d="M16.7,49.5c-0.3,0-0.6-0.3-0.6-0.6V0.6c0-0.3,0.3-0.6,0.6-0.6h36.7C53.7,0,54,0.3,54,0.6
				V49c0,0.3-0.3,0.6-0.6,0.6L16.7,49.5z"/>
			<path id="Fill-12" class="st2" d="M16.7,49.5c-0.3,0-0.6-0.3-0.6-0.6V0.6c0-0.3,0.3-0.6,0.6-0.6h36.7C53.7,0,54,0.3,54,0.6V49
				c0,0.3-0.3,0.6-0.6,0.6L16.7,49.5z M17.5,48h35V1.5h-35V48z"/>
			<g id="Group-6" transform="translate(21.000000, 6.000000)">
				<path id="Fill-4" class="st2" d="M9,32.5c0.3,0.2,0.3,0.7,0,0.9c-0.2,0.3-0.7,0.3-0.9,0l-0.8-0.8l-0.8,0.8
					c-0.2,0.3-0.7,0.3-0.9,0c-0.3-0.2-0.3-0.7,0-0.9l0.8-0.8l-0.8-0.8c-0.3-0.2-0.3-0.7,0-0.9c0.2-0.3,0.7-0.3,0.9,0l0.8,0.8L8.1,30
					c0.2-0.3,0.7-0.3,0.9,0c0.3,0.2,0.3,0.7,0,0.9l-0.8,0.8L9,32.5z"/>
				<path id="Fill-8" class="st2" d="M9.2,19.8c-0.1-0.1-0.3-0.2-0.4-0.2c-0.2,0-0.3,0.1-0.4,0.2L7.2,21l-0.5,0.5l-0.6-0.6
					c-0.1-0.1-0.3-0.2-0.4-0.2s-0.3,0.1-0.4,0.2c-0.2,0-0.3,0.2-0.3,0.3c0,0.2,0.1,0.3,0.2,0.4l1,1c0.1,0.1,0.3,0.2,0.4,0.2
					c0.2,0,0.3-0.1,0.4-0.2l2.1-2.1c0.1-0.1,0.2-0.3,0.2-0.4C9.4,20,9.4,19.9,9.2,19.8L9.2,19.8z"/>
				<path id="Fill-9" class="st2" d="M23.5,20.8h-9c-0.3,0-0.6-0.3-0.6-0.6c0-0.3,0.3-0.6,0.6-0.6h9c0.3,0,0.6,0.3,0.6,0.6
					S23.8,20.8,23.5,20.8z"/>
				<path id="Fill-10" class="st2" d="M22.3,23h-7.9c-0.3,0-0.6-0.3-0.6-0.6c0-0.3,0.3-0.6,0.6-0.6h7.9c0.3,0,0.6,0.3,0.6,0.6
					S22.6,23,22.3,23z"/>
				<path id="Fill-10-Copy" class="st2" d="M27.4,8h-3.7c-0.3,0-0.6-0.3-0.6-0.6s0.3-0.6,0.6-0.6h3.7C27.7,6.7,28,7,28,7.3
					S27.7,8,27.4,8z"/>
				<path id="Fill-10-Copy-2" class="st2" d="M5,8H0.6C0.3,8,0,7.7,0,7.3s0.3-0.6,0.6-0.6h4.3c0.4,0,0.7,0.3,0.7,0.6S5.3,8,5,8z"/>
				<path id="Fill-11" class="st2" d="M23.5,31.2h-9c-0.3,0-0.6-0.3-0.6-0.6c0-0.3,0.3-0.6,0.6-0.6h9c0.3,0,0.6,0.3,0.6,0.6
					C24.1,30.9,23.8,31.2,23.5,31.2z"/>
				<path id="Fill-12_00000117651158852788334170000015699354952569348226_" class="st2" d="M22.3,33.4h-7.9c-0.3,0-0.6-0.3-0.6-0.6
					s0.3-0.6,0.6-0.6h7.9c0.3,0,0.6,0.3,0.6,0.6S22.6,33.4,22.3,33.4z"/>
				<g>
					<path d="M9.3,7.3H8.1v1.8c0,0.3-0.1,0.5-0.2,0.6C7.8,9.8,7.6,9.9,7.4,9.9C7.3,9.9,7.1,9.8,7,9.7S6.8,9.4,6.8,9.1V4.2
						c0-0.3,0.1-0.5,0.2-0.6c0.1-0.1,0.3-0.2,0.6-0.2h1.7c0.5,0,0.9,0,1.1,0.1c0.3,0.1,0.5,0.2,0.7,0.4s0.3,0.4,0.4,0.6
						c0.1,0.2,0.1,0.5,0.1,0.8c0,0.7-0.2,1.1-0.6,1.5C10.7,7.1,10.1,7.3,9.3,7.3z M9,4.4H8.1v2H9c0.3,0,0.6,0,0.8-0.1
						s0.4-0.2,0.5-0.3c0.1-0.1,0.2-0.3,0.2-0.6c0-0.3-0.1-0.5-0.2-0.7C9.9,4.5,9.5,4.4,9,4.4z"/>
					<path d="M16.1,9.1l-0.3-0.8h-2.6l-0.3,0.8c-0.1,0.3-0.2,0.5-0.3,0.6c-0.1,0.1-0.2,0.2-0.4,0.2c-0.2,0-0.3-0.1-0.4-0.2
						c-0.1-0.1-0.2-0.3-0.2-0.4c0-0.1,0-0.2,0-0.3c0-0.1,0.1-0.2,0.1-0.4l1.6-4.2c0-0.1,0.1-0.3,0.2-0.4c0.1-0.2,0.1-0.3,0.2-0.4
						c0.1-0.1,0.2-0.2,0.3-0.3c0.1-0.1,0.3-0.1,0.4-0.1c0.2,0,0.3,0,0.5,0.1c0.1,0.1,0.2,0.2,0.3,0.3s0.1,0.2,0.2,0.3
						c0.1,0.1,0.1,0.3,0.2,0.5l1.7,4.1c0.1,0.3,0.2,0.5,0.2,0.7c0,0.1-0.1,0.3-0.2,0.4c-0.1,0.1-0.3,0.2-0.4,0.2
						c-0.1,0-0.2,0-0.3-0.1c-0.1,0-0.1-0.1-0.2-0.1c0-0.1-0.1-0.2-0.2-0.3S16.1,9.2,16.1,9.1z M13.5,7.3h1.9l-1-2.6L13.5,7.3z"/>
					<path d="M22.2,4.4h-2.6V6h2.1c0.2,0,0.3,0,0.4,0.1c0.1,0.1,0.1,0.2,0.1,0.4c0,0.1,0,0.3-0.1,0.4C22.1,7,22,7,21.8,7h-2.1v2.1
						c0,0.3-0.1,0.5-0.2,0.6c-0.1,0.1-0.3,0.2-0.5,0.2c-0.2,0-0.3-0.1-0.5-0.2s-0.2-0.3-0.2-0.6V4.2c0-0.2,0-0.3,0.1-0.5
						s0.1-0.2,0.3-0.3s0.3-0.1,0.5-0.1h3.1c0.2,0,0.4,0,0.5,0.1c0.1,0.1,0.1,0.2,0.1,0.4c0,0.2,0,0.3-0.1,0.4
						C22.6,4.4,22.4,4.4,22.2,4.4z"/>
				</g>
			</g>
		</g>
	</g>
</g>
</svg>
