<?xml version="1.0" encoding="utf-8"?>
<!-- Generator: Adobe Illustrator 28.2.0, SVG Export Plug-In . SVG Version: 6.00 Build 0)  -->
<svg version="1.1" id="Capa_1" xmlns="http://www.w3.org/2000/svg" xmlns:xlink="http://www.w3.org/1999/xlink" x="0px" y="0px"
	 viewBox="0 0 71 80" style="enable-background:new 0 0 71 80;" xml:space="preserve">
<style type="text/css">
	.st0{fill-rule:evenodd;clip-rule:evenodd;fill:#FDF0F6;}
	.st1{fill-rule:evenodd;clip-rule:evenodd;fill:#FFFFFF;}
	.st2{fill-rule:evenodd;clip-rule:evenodd;fill:#131515;}
</style>
<g id="Page-1">
	<g id="Pla-de-treball-nou-amb-text" transform="translate(-344.000000, -4122.000000)">
		<g id="paf1_icona" transform="translate(344.000000, 4122.000000)">
			<circle id="Oval-Copy" class="st0" cx="35.5" cy="44.5" r="35.5"/>
			<path id="Fill-12-Copy" class="st1" d="M16.7,49.5c-0.3,0-0.6-0.3-0.6-0.6V0.6c0-0.3,0.3-0.6,0.6-0.6h36.7c0.3,0,0.6,0.3,0.6,0.6
				v48.4c0,0.3-0.3,0.6-0.6,0.6L16.7,49.5z"/>
			<path id="Fill-12" class="st2" d="M16.7,49.5c-0.3,0-0.6-0.3-0.6-0.6V0.6c0-0.3,0.3-0.6,0.6-0.6h36.7c0.3,0,0.6,0.3,0.6,0.6v48.4
				c0,0.3-0.3,0.6-0.6,0.6L16.7,49.5z M17.5,48h35V1.5h-35V48z"/>
			<g id="Group-6" transform="translate(21.000000, 6.000000)">
				<path id="Fill-4" class="st2" d="M9,32.5c0.3,0.2,0.3,0.7,0,0.9c-0.2,0.3-0.7,0.3-0.9,0l-0.8-0.8l-0.8,0.8
					c-0.2,0.3-0.7,0.3-0.9,0c-0.3-0.2-0.3-0.7,0-0.9l0.8-0.8l-0.8-0.8c-0.3-0.2-0.3-0.7,0-0.9c0.2-0.3,0.7-0.3,0.9,0l0.8,0.8L8.1,30
					c0.2-0.3,0.7-0.3,0.9,0c0.3,0.2,0.3,0.7,0,0.9l-0.8,0.8L9,32.5z"/>
				<path id="Fill-8" class="st2" d="M9.2,19.8c-0.1-0.1-0.3-0.2-0.4-0.2c-0.2,0-0.3,0.1-0.4,0.2l-1.2,1.2l-0.5,0.5l-0.6-0.6
					c-0.1-0.1-0.3-0.2-0.4-0.2s-0.3,0.1-0.4,0.2C5.1,20.9,5,21.1,5,21.2c0,0.2,0.1,0.3,0.2,0.4l1,1c0.1,0.1,0.3,0.2,0.4,0.2
					c0.2,0,0.3-0.1,0.4-0.2l2.1-2.1c0.1-0.1,0.2-0.3,0.2-0.4C9.4,20,9.4,19.9,9.2,19.8L9.2,19.8z"/>
				<path id="Fill-9" class="st2" d="M23.5,20.8h-9c-0.3,0-0.6-0.3-0.6-0.6c0-0.3,0.3-0.6,0.6-0.6h9c0.3,0,0.6,0.3,0.6,0.6
					C24.1,20.5,23.8,20.8,23.5,20.8z"/>
				<path id="Fill-10" class="st2" d="M22.3,23h-7.9c-0.3,0-0.6-0.3-0.6-0.6c0-0.3,0.3-0.6,0.6-0.6h7.9c0.3,0,0.6,0.3,0.6,0.6
					C22.9,22.7,22.6,23,22.3,23z"/>
				<path id="Fill-10-Copy" class="st2" d="M27.4,8h-6.2c-0.3,0-0.6-0.3-0.6-0.6s0.3-0.6,0.6-0.6h6.2C27.7,6.7,28,7,28,7.3
					S27.7,8,27.4,8z"/>
				<path id="Fill-10-Copy-2" class="st2" d="M7.4,8H0.6C0.3,8,0,7.7,0,7.3s0.3-0.6,0.6-0.6h6.7C7.7,6.7,8,7,8,7.3S7.7,8,7.4,8z"/>
				<path id="Fill-11" class="st2" d="M23.5,31.2h-9c-0.3,0-0.6-0.3-0.6-0.6c0-0.3,0.3-0.6,0.6-0.6h9c0.3,0,0.6,0.3,0.6,0.6
					C24.1,30.9,23.8,31.2,23.5,31.2z"/>
				<path id="Fill-12_00000117651158852788334170000015699354952569348226_" class="st2" d="M22.3,33.4h-7.9c-0.3,0-0.6-0.3-0.6-0.6
					s0.3-0.6,0.6-0.6h7.9c0.3,0,0.6,0.3,0.6,0.6S22.6,33.4,22.3,33.4z"/>
				<g>
					<path d="M11.3,7.4h-1.2v1.8c0,0.3-0.1,0.5-0.2,0.6S9.6,10,9.5,10C9.3,10,9.1,9.9,9,9.8C8.9,9.6,8.8,9.5,8.8,9.2v-5
						c0-0.3,0.1-0.5,0.2-0.6s0.3-0.2,0.6-0.2h1.7c0.5,0,0.9,0,1.1,0.1c0.3,0.1,0.5,0.2,0.7,0.4s0.3,0.4,0.4,0.6s0.1,0.5,0.1,0.8
						c0,0.7-0.2,1.2-0.6,1.5C12.7,7.2,12.1,7.4,11.3,7.4z M11,4.4h-0.9v2H11c0.3,0,0.6,0,0.8-0.1C12,6.2,12.1,6.1,12.2,6
						s0.2-0.3,0.2-0.6c0-0.3-0.1-0.5-0.3-0.7C12,4.5,11.6,4.4,11,4.4z"/>
					<path d="M15.8,4.2l1.5,4.3l1.5-4.4c0.1-0.2,0.1-0.4,0.2-0.5c0-0.1,0.1-0.2,0.2-0.2s0.2-0.1,0.4-0.1c0.1,0,0.2,0,0.3,0.1
						s0.2,0.1,0.2,0.2C20,3.7,20,3.8,20,3.9C20,4,20,4,20,4.1c0,0.1,0,0.1-0.1,0.2s-0.1,0.1-0.1,0.2l-1.6,4.2
						c-0.1,0.2-0.1,0.3-0.2,0.5c-0.1,0.1-0.1,0.3-0.2,0.4c-0.1,0.1-0.2,0.2-0.3,0.3c-0.1,0.1-0.3,0.1-0.4,0.1s-0.3,0-0.4-0.1
						c-0.1-0.1-0.2-0.2-0.3-0.3c-0.1-0.1-0.1-0.2-0.2-0.4s-0.1-0.3-0.2-0.5l-1.5-4.2c0-0.1-0.1-0.2-0.1-0.2c0-0.1-0.1-0.2-0.1-0.2
						c0-0.1,0-0.2,0-0.2c0-0.1,0.1-0.3,0.2-0.4s0.3-0.2,0.5-0.2c0.2,0,0.4,0.1,0.5,0.2C15.6,3.7,15.7,3.9,15.8,4.2z"/>
				</g>
			</g>
		</g>
	</g>
</g>
</svg>
