<?xml version="1.0" encoding="UTF-8"?>
<svg id="Capa_1" xmlns="http://www.w3.org/2000/svg" version="1.1" viewBox="0 0 123 70">
  <!-- Generator: Adobe Illustrator 29.1.0, SVG Export Plug-In . SVG Version: 2.1.0 Build 142)  -->
  <defs>
    <style>
      .st0 {
        fill: #131515;
      }

      .st0, .st1, .st2 {
        fill-rule: evenodd;
      }

      .st1 {
        fill: #fce5c8;
      }

      .st2 {
        fill: #fff;
      }

      .st3 {
        fill: none;
        stroke: #131515;
        stroke-width: 2px;
      }
    </style>
  </defs>
  <g id="Page-1">
    <g id="Pla-de-treball-nou-amb-text">
      <g id="durada_icona">
        <path id="Rectangle-2" class="st1" d="M28,0h67c15.5,0,28,12.5,28,28v25c0,1.7-1.3,3-3,3H3c-1.7,0-3-1.3-3-3v-25C0,12.5,12.5,0,28,0Z"/>
        <g id="rellotge">
          <path id="Fill-1-Copy" class="st2" d="M60,22c12.7,0,23,10.3,23,23s-10.3,23-23,23-23-10.3-23-23,10.3-23,23-23Z"/>
          <path id="Fill-1" class="st0" d="M60,22.1c12.6,0,22.9,10.3,22.9,22.9s-10.3,22.9-22.9,22.9-22.9-10.3-22.9-22.9,10.3-22.9,22.9-22.9ZM60,20c-13.8,0-25,11.2-25,25s11.2,25,25,25,25-11.2,25-25-11.2-25-25-25Z"/>
          <polyline id="Stroke-2" class="st3" points="72.5 45 60 45 60 26.3"/>
        </g>
      </g>
    </g>
  </g>
</svg>