<?xml version="1.0" encoding="utf-8"?>
<!-- Svg Vector Icons : http://www.onlinewebfonts.com/icon -->
<!DOCTYPE svg PUBLIC "-//W3C//DTD SVG 1.1//EN" "http://www.w3.org/Graphics/SVG/1.1/DTD/svg11.dtd">
<svg version="1.1" xmlns="http://www.w3.org/2000/svg" xmlns:xlink="http://www.w3.org/1999/xlink" x="0px" y="0px" viewBox="0 0 1000 1000" enable-background="new 0 0 1000 1000" xml:space="preserve">
<metadata> Svg Vector Icons : http://www.onlinewebfonts.com/icon </metadata>
<g><g><path fill="#16b9ff" d="M990,417.9v164.1c0,55.7-45.1,100.9-100.9,100.9H683v206.2c0,55.7-45.1,100.9-100.9,100.9H417.9c-55.7,0-100.9-45.2-100.9-100.9V683H110.9C55.2,683,10,637.8,10,582.1V417.9c0-55.7,45.2-100.9,100.9-100.9H317V110.9C317,55.1,362.2,10,417.9,10h164.2C637.8,10,683,55.1,683,110.9V317h206.2C944.9,317.1,990,362.3,990,417.9z"/></g></g>
</svg>
